<?xml version="1.0" encoding="UTF-8"?>
<svg width="685px" height="681px" viewBox="0 0 685 681" version="1.1" xmlns="http://www.w3.org/2000/svg" xmlns:xlink="http://www.w3.org/1999/xlink">
    <!-- Generator: Sketch 54.1 (76490) - https://sketchapp.com -->
    <title>Kreis</title>
    <desc>Created with Sketch.</desc>
    <g id="Kreis" stroke="none" stroke-width="1" fill="none" fill-rule="evenodd">
        <g transform="translate(11.000000, 7.000000)">
            <path d="M161.375245,619.6416 C190.255265,637.0926 221.994916,650.2956 255.72505,658.3686 L261.489346,628.2141 C231.560044,620.8476 203.37354,609.0531 177.677393,593.5506 L161.375245,619.6416 Z" id="Fill-1" fill="#DC1464"></path>
            <path d="M14.8797329,432.53115 C24.9627463,465.18765 39.9319007,495.70665 58.9315584,523.22865 L83.6234577,504.74265 C66.8439544,480.24465 53.559055,453.16365 44.5073101,424.21515 L14.8797329,432.53115 Z" id="Fill-3" fill="#BE8C28"></path>
            <path d="M440.728307,18.1005 C408.668917,7.2735 374.420897,1.185 338.830877,0.6585 L338.745313,30.2685 C370.584038,30.7185 401.233877,36.0555 429.9833,45.5775 L440.728307,18.1005 Z" id="Fill-5" fill="#E6283C"></path>
            <path d="M95.4519718,520.88325 L70.791596,539.35125 C91.6961732,566.05425 116.577213,589.49475 144.556562,608.77725 L160.88573,582.64125 C136.135287,565.39275 114.064341,544.56225 95.4519718,520.88325" id="Fill-7" fill="#FAA028"></path>
            <path d="M628.114289,410.70795 L656.62053,418.94745 C663.735832,391.85295 667.527658,363.41295 667.527658,334.09095 C667.527658,327.51195 667.32951,320.98245 666.955732,314.49795 L637.562329,317.08995 C637.855047,322.56645 638.012664,328.07895 638.012664,333.62745 C638.012664,360.26295 634.567597,386.09295 628.114289,410.70795" id="Fill-9" fill="#FA3C1E"></path>
            <path d="M31.2701463,315.9222 L0.755408054,312.9927 C0.31858255,319.9677 0.0934147651,327.0012 0.0934147651,334.0887 C0.0934147651,361.3632 3.37185772,387.8682 9.5549651,413.2437 L39.1960523,404.9232 C33.6794416,382.0542 30.7387503,358.1907 30.7387503,333.6297 C30.7387503,327.6807 30.9323946,321.7812 31.2701463,315.9222" id="Fill-11" fill="#3C8246"></path>
            <path d="M99.1550812,96.98685 C75.1476919,120.71535 54.7204705,148.06185 38.7650812,178.13535 L65.9293228,191.76585 C80.1239,164.99985 98.1958664,140.60085 119.420182,119.34285 L99.1550812,96.98685 Z" id="Fill-13" fill="#5ABE28"></path>
            <path d="M318.803554,0.9573 C283.591815,2.5143 249.794131,9.5208 218.239117,21.1623 L228.939091,49.0218 C257.134601,38.5863 287.293574,32.2053 318.713487,30.6123 L318.803554,0.9573 Z" id="Fill-15" fill="#1E466E"></path>
            <path d="M29.9245436,196.09215 C16.1712953,226.27815 6.79530872,258.87165 2.60268456,293.07165 L33.0633826,295.99215 C36.8236846,265.62165 45.0738322,236.64615 57.1338188,209.74065 L29.9245436,196.09215 Z" id="Fill-17" fill="#0A96DC"></path>
            <path d="M665.205728,294.56925 C660.963566,258.66825 651.020157,224.51775 636.294184,193.04025 L609.936043,206.06775 C623.067828,234.34125 631.966459,264.97275 635.825835,297.15675 L665.205728,294.56925 Z" id="Fill-19" fill="#C81428"></path>
            <path d="M397.849605,661.4205 C432.507431,654.6885 465.255834,642.5925 495.180632,626.0415 L479.364847,600.2745 C452.551867,614.859 423.293565,625.5105 392.373525,631.4865 L397.849605,661.4205 Z" id="Fill-21" fill="#A01446"></path>
            <path d="M496.619905,590.1234 L512.404166,615.8274 C541.964193,597.0804 568.380878,573.8109 590.663482,546.9954 L566.809207,528.8379 C546.733247,552.6744 523.063609,573.3834 496.619905,590.1234" id="Fill-23" fill="#FAC80A"></path>
            <path d="M199.671332,28.65615 C168.210889,42.47115 139.294842,61.00215 113.810352,83.34465 L134.030419,105.65565 C156.740842,85.71165 182.450499,69.09765 210.402828,56.58765 L199.671332,28.65615 Z" id="Fill-25" fill="#0064A0"></path>
            <path d="M602.989617,531.22785 C623.574456,503.20635 639.881107,471.85935 650.954858,438.13635 L622.408087,429.88335 C612.325073,460.01535 597.63963,488.02335 579.193885,513.11085 L602.989617,531.22785 Z" id="Fill-27" fill="#28BEE6"></path>
            <path d="M548.606643,78.87255 C522.104395,56.57955 492.085026,38.32755 459.49424,25.07955 L448.77175,52.51155 C477.967005,64.38255 504.901576,80.65905 528.737838,100.52655 L548.606643,78.87255 Z" id="Fill-29" fill="#DCA03C"></path>
            <path d="M281.078943,632.37255 L275.332661,662.45055 C294.318809,665.80755 313.858869,667.55355 333.813238,667.55355 C348.822923,667.55355 363.598433,666.56355 378.085728,664.64205 L372.596138,634.65405 C360.076809,636.22005 347.323305,637.03905 334.376158,637.03905 C316.196111,637.03905 298.385339,635.43705 281.078943,632.37255" id="Fill-31" fill="#FA6428"></path>
            <path d="M600.918523,188.1996 L627.272161,175.1721 C610.456631,144.2346 588.881054,116.2581 563.536168,92.2101 L543.698886,113.8371 C566.400302,135.4281 585.755725,160.5066 600.918523,188.1996" id="Fill-33" fill="#50A03C"></path>
        </g>
    </g>
</svg>